<svg xmlns="http://www.w3.org/2000/svg" viewBox="0 0 100 100" fill="none">
  <path d="M4 4 C 4 30, 4 60, 4 96" stroke="#B08D3D" stroke-width="1.4" stroke-linecap="round"/>
  <path d="M4 4 C 30 4, 60 4, 96 4" stroke="#B08D3D" stroke-width="1.4" stroke-linecap="round"/>
  <path d="M4 4 C 20 4, 22 20, 36 22 C 22 24, 20 34, 18 46" stroke="#B08D3D" stroke-width="1.2" stroke-linecap="round"/>
  <path d="M4 4 C 4 20, 20 22, 22 36 C 24 22, 34 20, 46 18" stroke="#B08D3D" stroke-width="1.2" stroke-linecap="round"/>
  <circle cx="4" cy="4" r="3" fill="#B08D3D"/>
  <path d="M14 14 C 20 18, 24 24, 22 32" stroke="#C9A961" stroke-width="1" stroke-linecap="round"/>
  <path d="M14 14 C 18 20, 24 24, 32 22" stroke="#C9A961" stroke-width="1" stroke-linecap="round"/>
</svg>
